<svg width="725.334" height="725.334" xmlns="http://www.w3.org/2000/svg">

 <g>
  <title>background</title>
  <rect fill="none" id="canvas_background" height="402" width="582" y="-1" x="-1"/>
 </g>
 <g>
  <title>Layer 1</title>
  <g id="svg_1">
   <g fill="white" id="Out">
    <g id="svg_2">
     <path id="svg_3" d="m249.333,181.333c9.384,0 17.884,-3.808 24.049,-9.973l55.284,-55.284l0,371.258c0,18.768 15.209,34 34,34c18.791,0 34,-15.232 34,-34l0,-371.258l55.307,55.284c6.143,6.166 14.643,9.973 24.026,9.973c18.791,0 34,-15.232 34,-34c0,-9.384 -3.808,-17.884 -9.95,-24.049l-113.332,-113.333c-6.166,-6.143 -14.666,-9.951 -24.05,-9.951s-17.884,3.808 -24.027,9.973l-113.333,113.334c-6.166,6.143 -9.974,14.643 -9.974,24.026c0,18.768 15.21,34 34,34zm374.001,45.334l-124.667,0c-18.791,0 -34,15.232 -34,34s15.209,34 34,34l102,0l0,362.667l-476,0l0,-362.667l102,0c18.791,0 34,-15.232 34,-34s-15.209,-34 -34,-34l-124.667,0c-25.001,0 -45.333,20.354 -45.333,45.333l0,408c0,24.979 20.332,45.334 45.333,45.334l521.333,0c25.001,0 45.333,-20.355 45.333,-45.334l0,-408c0.001,-24.979 -20.331,-45.333 -45.332,-45.333z"/>
    </g>
   </g>
  </g>
  <g id="svg_4"/>
  <g id="svg_5"/>
  <g id="svg_6"/>
  <g id="svg_7"/>
  <g id="svg_8"/>
  <g id="svg_9"/>
  <g id="svg_10"/>
  <g id="svg_11"/>
  <g id="svg_12"/>
  <g id="svg_13"/>
  <g id="svg_14"/>
  <g id="svg_15"/>
  <g id="svg_16"/>
  <g id="svg_17"/>
  <g id="svg_18"/>
 </g>
</svg>